<svg width="24" height="22" viewBox="0 0 24 22" fill="none" xmlns="http://www.w3.org/2000/svg">
<g id="Group 86">
<path id="Vector" d="M9.64364 0C9.40052 0 9.16736 0.0965773 8.99545 0.268486C8.82355 0.440394 8.72697 0.673552 8.72697 0.916667V3.28717L7.54264 2.101C7.37051 1.92887 7.13706 1.83218 6.89364 1.83218C6.65021 1.83218 6.41676 1.92887 6.24464 2.101C6.07251 2.27313 5.97581 2.50658 5.97581 2.75C5.97581 2.99342 6.07251 3.22687 6.24464 3.399L8.72697 5.8795V9.41233L5.66714 7.64683L4.75964 4.25517C4.72834 4.13888 4.67444 4.0299 4.60102 3.93444C4.52761 3.83899 4.43611 3.75892 4.33175 3.69883C4.22739 3.63873 4.11222 3.59978 3.99281 3.5842C3.8734 3.56861 3.75209 3.5767 3.6358 3.608C3.51951 3.6393 3.41053 3.69319 3.31508 3.76661C3.21962 3.84003 3.13956 3.93153 3.07946 4.03588C3.01937 4.14024 2.98042 4.25541 2.96483 4.37483C2.94925 4.49424 2.95733 4.61555 2.98863 4.73183L3.42314 6.34883L1.3698 5.1645C1.15937 5.04486 0.910163 5.01331 0.676558 5.07673C0.442952 5.14015 0.243917 5.2934 0.122883 5.50303C0.00184917 5.71266 -0.0313549 5.96165 0.0305166 6.19568C0.0923882 6.4297 0.244311 6.62975 0.453134 6.75217L2.50647 7.9365L0.885799 8.371C0.769514 8.4023 0.660533 8.45619 0.565077 8.52961C0.469621 8.60303 0.389559 8.69453 0.329464 8.79888C0.269369 8.90324 0.230418 9.01841 0.214833 9.13783C0.199248 9.25724 0.207335 9.37855 0.238632 9.49483C0.269931 9.61112 0.323829 9.7201 0.397245 9.81556C0.470662 9.91101 0.562161 9.99108 0.666518 10.0512C0.770876 10.1113 0.886047 10.1502 1.00546 10.1658C1.12487 10.1814 1.24618 10.1733 1.36247 10.142L4.75047 9.2345L7.8103 11L4.75047 12.7655L1.36063 11.858C1.24363 11.8246 1.12115 11.8149 1.00034 11.8294C0.879537 11.8438 0.762818 11.8822 0.656993 11.9422C0.551167 12.0023 0.458354 12.0828 0.383962 12.1791C0.309568 12.2753 0.255085 12.3855 0.22369 12.503C0.192295 12.6206 0.184616 12.7432 0.201099 12.8637C0.217583 12.9843 0.257898 13.1003 0.319697 13.2051C0.381496 13.3099 0.463541 13.4014 0.561049 13.4742C0.658556 13.5469 0.769576 13.5996 0.887634 13.629L2.50647 14.0635L0.453134 15.2478C0.244311 15.3703 0.0923882 15.5703 0.0305166 15.8043C-0.0313549 16.0383 0.00184917 16.2873 0.122883 16.497C0.243917 16.7066 0.442952 16.8598 0.676558 16.9233C0.910163 16.9867 1.15937 16.9551 1.3698 16.8355L3.42314 15.6512L2.98863 17.27C2.95528 17.387 2.94555 17.5095 2.96001 17.6303C2.97447 17.7511 3.01284 17.8678 3.07288 17.9736C3.13292 18.0795 3.21342 18.1723 3.3097 18.2467C3.40597 18.3211 3.51609 18.3755 3.63364 18.4069C3.75119 18.4383 3.87382 18.446 3.99436 18.4295C4.11491 18.4131 4.23097 18.3727 4.33578 18.3109C4.44058 18.2491 4.53204 18.1671 4.60481 18.0696C4.67758 17.9721 4.73021 17.8611 4.75964 17.743L5.6653 14.355L8.72697 12.5877V16.1205L6.24464 18.601C6.15941 18.6862 6.0918 18.7874 6.04568 18.8988C5.99955 19.0101 5.97581 19.1295 5.97581 19.25C5.97581 19.3705 5.99955 19.4899 6.04568 19.6012C6.0918 19.7126 6.15941 19.8138 6.24464 19.899C6.32986 19.9842 6.43104 20.0518 6.5424 20.098C6.65375 20.1441 6.7731 20.1678 6.89364 20.1678C7.01417 20.1678 7.13352 20.1441 7.24487 20.098C7.35623 20.0518 7.45741 19.9842 7.54264 19.899L8.72697 18.7128V21.0833C8.72697 21.3264 8.82355 21.5596 8.99545 21.7315C9.16736 21.9034 9.40052 22 9.64364 22C9.88675 22 10.1199 21.9034 10.2918 21.7315C10.4637 21.5596 10.5603 21.3264 10.5603 21.0833V0.916667C10.5603 0.673552 10.4637 0.440394 10.2918 0.268486C10.1199 0.0965773 9.88675 0 9.64364 0Z" fill="white"/>
<path id="Vector_2" d="M13.6064 0C13.8495 0 14.0827 0.0965773 14.2546 0.268486C14.4265 0.440394 14.5231 0.673552 14.5231 0.916667V3.28717L15.7074 2.101C15.8795 1.92887 16.113 1.83218 16.3564 1.83218C16.5998 1.83218 16.8333 1.92887 17.0054 2.101C17.1775 2.27313 17.2742 2.50658 17.2742 2.75C17.2742 2.99342 17.1775 3.22687 17.0054 3.399L14.5231 5.8795V9.41233L17.5829 7.64683L18.4904 4.25517C18.5217 4.13888 18.5756 4.0299 18.649 3.93444C18.7224 3.83899 18.8139 3.75892 18.9183 3.69883C19.0227 3.63873 19.1378 3.59978 19.2572 3.5842C19.3766 3.56861 19.498 3.5767 19.6142 3.608C19.7305 3.6393 19.8395 3.69319 19.935 3.76661C20.0304 3.84003 20.1105 3.93153 20.1706 4.03588C20.2307 4.14024 20.2696 4.25541 20.2852 4.37483C20.3008 4.49424 20.2927 4.61555 20.2614 4.73183L19.8269 6.34883L21.8802 5.1645C22.0907 5.04486 22.3399 5.01331 22.5735 5.07673C22.8071 5.14015 23.0061 5.2934 23.1272 5.50303C23.2482 5.71266 23.2814 5.96165 23.2195 6.19568C23.1577 6.4297 23.0057 6.62975 22.7969 6.75217L20.7436 7.9365L22.3642 8.371C22.4805 8.4023 22.5895 8.45619 22.685 8.52961C22.7804 8.60303 22.8605 8.69453 22.9206 8.79888C22.9807 8.90324 23.0196 9.01841 23.0352 9.13783C23.0508 9.25724 23.0427 9.37855 23.0114 9.49483C22.9801 9.61112 22.9262 9.7201 22.8528 9.81556C22.7794 9.91101 22.6879 9.99108 22.5835 10.0512C22.4792 10.1113 22.364 10.1502 22.2446 10.1658C22.1252 10.1814 22.0039 10.1733 21.8876 10.142L18.4996 9.2345L15.4397 11L18.4996 12.7655L21.8894 11.858C22.0064 11.8246 22.1289 11.8149 22.2497 11.8294C22.3705 11.8438 22.4872 11.8822 22.5931 11.9422C22.6989 12.0023 22.7917 12.0828 22.8661 12.1791C22.9405 12.2753 22.995 12.3855 23.0264 12.503C23.0578 12.6206 23.0654 12.7432 23.0489 12.8637C23.0325 12.9843 22.9921 13.1003 22.9303 13.2051C22.8685 13.3099 22.7865 13.4014 22.689 13.4742C22.5915 13.5469 22.4805 13.5996 22.3624 13.629L20.7436 14.0635L22.7969 15.2478C23.0057 15.3703 23.1577 15.5703 23.2195 15.8043C23.2814 16.0383 23.2482 16.2873 23.1272 16.497C23.0061 16.7066 22.8071 16.8598 22.5735 16.9233C22.3399 16.9867 22.0907 16.9551 21.8802 16.8355L19.8269 15.6512L20.2614 17.27C20.2948 17.387 20.3045 17.5095 20.29 17.6303C20.2756 17.7511 20.2372 17.8678 20.1772 17.9736C20.1171 18.0795 20.0366 18.1723 19.9404 18.2467C19.8441 18.3211 19.734 18.3755 19.6164 18.4069C19.4989 18.4383 19.3762 18.446 19.2557 18.4295C19.1351 18.4131 19.0191 18.3727 18.9143 18.3109C18.8095 18.2491 18.718 18.1671 18.6452 18.0696C18.5725 17.9721 18.5198 17.8611 18.4904 17.743L17.5847 14.355L14.5231 12.5877V16.1205L17.0054 18.601C17.0906 18.6862 17.1582 18.7874 17.2044 18.8988C17.2505 19.0101 17.2742 19.1295 17.2742 19.25C17.2742 19.3705 17.2505 19.4899 17.2044 19.6012C17.1582 19.7126 17.0906 19.8138 17.0054 19.899C16.9202 19.9842 16.819 20.0518 16.7076 20.098C16.5963 20.1441 16.4769 20.1678 16.3564 20.1678C16.2359 20.1678 16.1165 20.1441 16.0052 20.098C15.8938 20.0518 15.7926 19.9842 15.7074 19.899L14.5231 18.7128V21.0833C14.5231 21.3264 14.4265 21.5596 14.2546 21.7315C14.0827 21.9034 13.8495 22 13.6064 22C13.3633 22 13.1301 21.9034 12.9582 21.7315C12.7863 21.5596 12.6897 21.3264 12.6897 21.0833V0.916667C12.6897 0.673552 12.7863 0.440394 12.9582 0.268486C13.1301 0.0965773 13.3633 0 13.6064 0Z" fill="white"/>
</g>
</svg>
